<svg width="147" height="146" viewBox="0 0 147 146" fill="none" xmlns="http://www.w3.org/2000/svg">
<path d="M116.895 31.6608C114.919 30.8224 113.035 31.6008 112.183 33.6068L103.668 53.6674C101.965 57.6795 98.9452 61.1326 95.2215 63.4978C93.5243 64.7503 93.002 66.8961 93.8931 68.4581C94.4096 69.0719 94.926 69.6858 95.5845 69.9652C96.5721 70.3845 97.7016 70.4693 98.7858 69.7458C104.065 66.4624 107.981 61.8116 110.252 56.4621L118.767 36.4016C119.619 34.3956 118.87 32.4992 116.895 31.6608Z" fill="#EC4C3C"/>
<path d="M53.7404 68.776C52.5201 67.0743 50.403 66.5702 48.8477 67.4883C43.8979 70.9114 39.9812 75.5622 37.7105 80.9117L29.1953 100.972C28.3438 102.978 29.0929 104.875 31.0681 105.713C33.0434 106.551 34.9279 105.773 35.7794 103.767L44.2946 83.7065C45.9976 79.6944 49.0175 76.2412 52.7411 73.876C54.4383 72.6235 54.9607 70.4777 53.7404 68.776Z" fill="#EC4C3C"/>
<path d="M75.4005 65.3435C69.4748 62.8282 65.3429 57.9176 63.4247 52.3683L84.8231 61.4514C86.7983 62.2899 88.6828 61.5115 89.5343 59.5054C90.3858 57.4994 89.6367 55.603 87.6615 54.7646L62.6418 44.1444C62.5057 41.7191 63.1699 39.239 64.1634 36.8986L97.084 50.8725C99.0592 51.711 100.944 50.9326 101.795 48.9265C102.647 46.9205 101.898 45.0241 99.9224 44.1857L67.0018 30.2117L69.8401 23.5249L102.761 37.4989C104.736 38.3373 106.621 37.5589 107.472 35.5528C108.324 33.5468 107.574 31.6504 105.599 30.812L69.3865 15.4406C67.4112 14.6022 65.5267 15.3806 64.6752 17.3867L57.5792 34.1038C51.3348 48.8148 58.0771 65.8818 72.5621 72.0303C78.4879 74.5456 82.6198 79.4562 84.538 85.0054L63.1396 75.9224C61.1644 75.0839 59.2799 75.8623 58.4284 77.8684C57.5768 79.8744 58.326 81.7708 60.3012 82.6092L85.3209 93.2294C85.1278 95.515 84.7928 98.1348 83.7993 100.475L50.8787 86.5013C48.9035 85.6628 47.019 86.4412 46.1674 88.4473C45.3159 90.4533 46.0651 92.3497 48.0403 93.1881L80.9609 107.162L78.1225 113.849L45.2019 99.8749C43.2267 99.0365 41.3422 99.8149 40.4907 101.821C39.6391 103.827 40.3883 105.723 42.3635 106.562L78.5762 121.933C80.5514 122.772 82.4359 121.993 83.2875 119.987L90.3834 103.27C96.6279 88.559 89.8856 71.492 75.4005 65.3435Z" fill="#2596BE"/>
<g filter="url(#filter0_d)">
<circle cx="73.5" cy="72.5" r="53.5" stroke="black" stroke-width="8" shape-rendering="crispEdges"/>
</g>
<rect x="59" y="7" width="28" height="15" rx="5" fill="black"/>
<rect x="110.404" y="17.2972" width="28" height="15" rx="5" transform="rotate(45 110.404 17.2972)" fill="black"/>
<rect x="59" y="124" width="28" height="15" rx="5" fill="black"/>
<rect x="16.7972" y="36.0962" width="28" height="15" rx="5" transform="rotate(-45 16.7972 36.0962)" fill="black"/>
<rect x="35.5962" y="127.703" width="28" height="15" rx="5" transform="rotate(-135 35.5962 127.703)" fill="black"/>
<rect x="129.203" y="109.904" width="28" height="15" rx="5" transform="rotate(135 129.203 109.904)" fill="black"/>
<rect x="124" y="86" width="28" height="15" rx="5" transform="rotate(-90 124 86)" fill="black"/>
<rect x="8" y="86" width="28" height="15" rx="5" transform="rotate(-90 8 86)" fill="black"/>
<defs>
<filter id="filter0_d" x="12" y="15" width="123" height="123" filterUnits="userSpaceOnUse" color-interpolation-filters="sRGB">
<feFlood flood-opacity="0" result="BackgroundImageFix"/>
<feColorMatrix in="SourceAlpha" type="matrix" values="0 0 0 0 0 0 0 0 0 0 0 0 0 0 0 0 0 0 127 0" result="hardAlpha"/>
<feOffset dy="4"/>
<feGaussianBlur stdDeviation="2"/>
<feComposite in2="hardAlpha" operator="out"/>
<feColorMatrix type="matrix" values="0 0 0 0 0 0 0 0 0 0 0 0 0 0 0 0 0 0 0.25 0"/>
<feBlend mode="normal" in2="BackgroundImageFix" result="effect1_dropShadow"/>
<feBlend mode="normal" in="SourceGraphic" in2="effect1_dropShadow" result="shape"/>
</filter>
</defs>
</svg>
